<svg viewBox="0 0 1120 1120" width="1120" height="1120" x="0" y="0" xmlns="http://www.w3.org/2000/svg"><defs><pattern id="pattern" x="0" y="0" width="8" height="8" patternUnits="userSpaceOnUse"><polygon points="0,4 0,8 8,0 4,0" fill="#ffffff"></polygon><polygon points="4,8 8,8 8,4" fill="#ffffff"></polygon></pattern><mask id="grating" x="0" y="0" width="1" height="1"><rect x="0" y="0" width="100%" height="100%" fill="url(#pattern)"></rect></mask></defs><g id="horizStripes"><rect fill="#006818" height="64" width="100%" x="0" y="0"></rect><rect fill="#C80000" height="8" width="100%" x="0" y="64"></rect><rect fill="#006818" height="8" width="100%" x="0" y="72"></rect><rect fill="#C80000" height="24" width="100%" x="0" y="80"></rect><rect fill="#006818" height="128" width="100%" x="0" y="104"></rect><rect fill="#101010" height="128" width="100%" x="0" y="232"></rect><rect fill="#C80000" height="8" width="100%" x="0" y="360"></rect><rect fill="#2C2C80" height="128" width="100%" x="0" y="368"></rect><rect fill="#C80000" height="24" width="100%" x="0" y="496"></rect><rect fill="#2C2C80" height="64" width="100%" x="0" y="520"></rect><rect fill="#E8C000" height="16" width="100%" x="0" y="584"></rect><rect fill="#2C2C80" height="64" width="100%" x="0" y="600"></rect><rect fill="#C80000" height="24" width="100%" x="0" y="664"></rect><rect fill="#2C2C80" height="128" width="100%" x="0" y="688"></rect><rect fill="#C80000" height="8" width="100%" x="0" y="816"></rect><rect fill="#101010" height="128" width="100%" x="0" y="824"></rect><rect fill="#006818" height="128" width="100%" x="0" y="952"></rect><rect fill="#C80000" height="24" width="100%" x="0" y="1080"></rect><rect fill="#006818" height="8" width="100%" x="0" y="1104"></rect><rect fill="#C80000" height="8" width="100%" x="0" y="1112"></rect></g><g id="vertStripes" mask="url(#grating)"><rect fill="#006818" height="100%" width="64" x="0" y="0"></rect><rect fill="#C80000" height="100%" width="8" x="64" y="0"></rect><rect fill="#006818" height="100%" width="8" x="72" y="0"></rect><rect fill="#C80000" height="100%" width="24" x="80" y="0"></rect><rect fill="#006818" height="100%" width="128" x="104" y="0"></rect><rect fill="#101010" height="100%" width="128" x="232" y="0"></rect><rect fill="#C80000" height="100%" width="8" x="360" y="0"></rect><rect fill="#2C2C80" height="100%" width="128" x="368" y="0"></rect><rect fill="#C80000" height="100%" width="24" x="496" y="0"></rect><rect fill="#2C2C80" height="100%" width="64" x="520" y="0"></rect><rect fill="#E8C000" height="100%" width="16" x="584" y="0"></rect><rect fill="#2C2C80" height="100%" width="64" x="600" y="0"></rect><rect fill="#C80000" height="100%" width="24" x="664" y="0"></rect><rect fill="#2C2C80" height="100%" width="128" x="688" y="0"></rect><rect fill="#C80000" height="100%" width="8" x="816" y="0"></rect><rect fill="#101010" height="100%" width="128" x="824" y="0"></rect><rect fill="#006818" height="100%" width="128" x="952" y="0"></rect><rect fill="#C80000" height="100%" width="24" x="1080" y="0"></rect><rect fill="#006818" height="100%" width="8" x="1104" y="0"></rect><rect fill="#C80000" height="100%" width="8" x="1112" y="0"></rect></g></svg>