<?xml version="1.0" encoding="UTF-8" standalone="no"?>
<svg
   xmlns:dc="http://purl.org/dc/elements/1.1/"
   xmlns:cc="http://creativecommons.org/ns#"
   xmlns:rdf="http://www.w3.org/1999/02/22-rdf-syntax-ns#"
   xmlns:svg="http://www.w3.org/2000/svg"
   xmlns="http://www.w3.org/2000/svg"
   id="svg4"
   version="1.1"
   viewBox="0 0 200 200"
   height="200"
   width="200">
  <metadata
     id="metadata10">
    <rdf:RDF>
      <cc:Work
         rdf:about="">
        <dc:format>image/svg+xml</dc:format>
        <dc:type
           rdf:resource="http://purl.org/dc/dcmitype/StillImage" />
        <dc:title></dc:title>
      </cc:Work>
    </rdf:RDF>
  </metadata>
  <defs
     id="defs8" />
  <path
     style="fill:#ffffff;fill-opacity:1;stroke-width:1"
     id="path2"
     d="m 117.875,71.941644 -17.875002,-14.701969 -17.9,14.72697 c -4.766667,3.05 -8.616666,7.308333 -11.316666,12.308333 L 0,99.999976 70.783332,115.72498 c 2.7,5 6.549999,9.25833 11.316666,12.30833 l 17.9,71.96666 17.975002,-71.99999 c 4.75833,-3.05834 8.58333,-7.32501 11.275,-12.32501 L 200,99.999976 129.23333,84.299977 c -2.7,-5.024999 -6.56667,-9.3 -11.35833,-12.358333 z M 99.999998,116.66664 c -9.2,0 -16.666667,-7.46666 -16.666667,-16.666664 0,-9.199999 7.466667,-16.666665 16.666667,-16.666665 9.199992,0 16.666662,7.466666 16.666662,16.666665 0,9.200004 -7.46667,16.666664 -16.666662,16.666664 z M 158.33333,158.33331 129.75,140.11664 c 3.95,-2.93333 7.44166,-6.425 10.375,-10.37499 z m -29.34166,-99.016665 29.34166,-17.641666 -17.65833,29.325 c -3.21667,-4.516668 -7.16667,-8.458334 -11.68333,-11.683334 z m -57.958339,81.391665 -29.366666,17.625 17.65,-29.34166 c 3.225,4.52499 7.183333,8.48333 11.716666,11.71666 z m -11.166666,-70.441665 -18.2,-28.591666 28.591666,18.199999 c -3.949999,2.933333 -7.449999,6.433333 -10.391666,10.391667 z" />
  <path
     style="fill:#ff0000;fill-opacity:1;stroke-width:1"
     id="path2-7"
     d="M 117.8875,71.941661 100.0125,0 82.112499,71.966661 c 11.805363,-6.718401 23.987811,-7.038768 35.775001,-0.025 z" />
</svg>
